<?xml version="1.0" encoding="UTF-8" standalone="no"?>
<!-- Created with Inkscape (http://www.inkscape.org/) -->

<svg
   width="16"
   height="16"
   viewBox="0 0 4.2333332 4.2333335"
   version="1.1"
   id="svg5"
   sodipodi:docname="icon.svg"
   inkscape:version="1.1.1 (3bf5ae0d25, 2021-09-20)"
   inkscape:export-filename="C:\Users\User\Programmierung\Webentwicklung\expenses\logo64.png"
   inkscape:export-xdpi="384"
   inkscape:export-ydpi="384"
   xmlns:inkscape="http://www.inkscape.org/namespaces/inkscape"
   xmlns:sodipodi="http://sodipodi.sourceforge.net/DTD/sodipodi-0.dtd"
   xmlns="http://www.w3.org/2000/svg"
   xmlns:svg="http://www.w3.org/2000/svg">
  <sodipodi:namedview
     id="namedview7"
     pagecolor="#ffffff"
     bordercolor="#666666"
     borderopacity="1.0"
     inkscape:pageshadow="2"
     inkscape:pageopacity="0.0"
     inkscape:pagecheckerboard="0"
     inkscape:document-units="mm"
     showgrid="false"
     units="px"
     inkscape:snap-global="false"
     inkscape:zoom="12.443434"
     inkscape:cx="31.10074"
     inkscape:cy="19.648917"
     inkscape:window-width="2560"
     inkscape:window-height="1377"
     inkscape:window-x="1592"
     inkscape:window-y="-8"
     inkscape:window-maximized="1"
     inkscape:current-layer="layer1" />
  <defs
     id="defs2" />
  <g
     inkscape:label="Ebene 1"
     inkscape:groupmode="layer"
     id="layer1">
    <rect
       style="fill:#212529;fill-opacity:1;stroke-width:0.352778"
       id="rect948"
       width="4.2333331"
       height="4.2333331"
       x="0"
       y="0"
       rx="0.52916664" />
    <rect
       style="fill:#212529;fill-opacity:1;stroke-width:0.352777"
       id="rect1070"
       width="0.10631444"
       height="0.021262888"
       x="-8.5902061"
       y="1.9349227"
       rx="0.52916664" />
    <path
       d="m 5.9552676,7.7821928 a 0.1984375,0.1984375 0 1 1 -0.3968749,0 0.1984375,0.1984375 0 0 1 0.3968749,0 z M 6.2563635,7.3863762 A 1.7496896,1.7496896 0 0 1 6.7394926,7.319172 c 0.1762125,0 0.3447521,0.025665 0.5008563,0.072231 A 0.13229166,0.13229166 0 0 0 7.3160197,7.1379324 2.0113625,2.0113625 0 0 0 6.7394926,7.0545887 c -0.1942041,0 -0.3812645,0.027252 -0.5561541,0.077258 a 0.13239894,0.13239894 0 1 0 0.073025,0.2545295 z"
       id="path2"
       style="stroke-width:0.264583;fill:#ffffff" />
    <path
       fill-rule="evenodd"
       d="m 6.7394926,6.5325657 c -0.7876645,0 -1.4739937,0.45085 -1.6721666,1.0914063 H 4.9218052 a 0.26458333,0.26458333 0 0 0 -0.26035,0.3100916 l 0.067204,0.3862917 a 0.396875,0.396875 0 0 0 0.3910542,0.3288771 h 0.069585 c 0.079375,0.1357312 0.1820333,0.2587625 0.3029479,0.3656541 l -0.1928812,0.655373 a 0.13229166,0.13229166 0 0 0 0.127,0.1695979 H 5.9555322 A 0.13229166,0.13229166 0 0 0 6.080151,9.7520157 L 6.2076801,9.3945636 c 0.1680105,0.045773 0.3466042,0.070644 0.5320771,0.070644 0.1870604,0 0.3672417,-0.025135 0.536575,-0.071967 L 7.420001,9.756249 A 0.13229166,0.13229166 0 0 0 7.5430322,9.839857 H 8.0721989 A 0.13229166,0.13229166 0 0 0 8.1986697,9.6692011 L 7.9973218,9.0061553 c 0.288925,-0.2595562 0.4714875,-0.6130396 0.4714875,-1.0072687 0,-0.038365 -0.00185,-0.076729 -0.00529,-0.1140355 0.069056,-0.029104 0.1344084,-0.070379 0.1865313,-0.117475 0.083344,0.080963 0.2156354,0.080963 0.2156354,-0.1103312 0,0.059002 -0.1322917,0.059002 -0.1219729,-0.00688 A 0.25135416,0.25135416 0 0 0 8.7675239,7.582697 0.18520833,0.18520833 0 0 0 8.714078,7.4120407 0.15345833,0.15345833 0 0 0 8.5270176,7.3861116 0.19446875,0.19446875 0 0 0 8.4277989,7.5348074 c -0.00635,0.064294 0.021696,0.127 0.084667,0.1730375 a 0.55879999,0.55879999 0 0 1 -0.068527,0.040481 C 8.302651,7.0434762 7.5750468,6.5325657 6.7394926,6.5325657 Z M 5.2980427,7.7848386 C 5.4184281,7.2382095 6.0036864,6.7971491 6.7394926,6.7971491 c 0.8323792,0 1.4647334,0.5593291 1.4647334,1.2017375 0,0.3317875 -0.1651,0.6376458 -0.4418542,0.8593666 A 0.13229166,0.13229166 0 0 0 7.7187155,8.9998053 L 7.8933405,9.575274 H 7.632726 L 7.4766218,9.1818386 a 0.13229166,0.13229166 0 0 0 -0.1664229,-0.0762 C 7.1353093,9.1664928 6.9424281,9.200624 6.7394926,9.200624 A 1.7351375,1.7351375 0 0 1 6.1687864,9.1056386 0.13229166,0.13229166 0 0 0 6.000776,9.186072 L 5.8618697,9.575274 H 5.6028427 L 5.7703239,9.0064199 A 0.13229166,0.13229166 0 0 0 5.7253447,8.8651324 1.2300479,1.2300479 0 0 1 5.3856197,8.4574095 0.13229166,0.13229166 0 0 0 5.2676156,8.3846491 H 5.1194489 A 0.13229166,0.13229166 0 0 1 4.9892739,8.2751116 L 4.9220697,7.8888199 H 5.168926 A 0.13229166,0.13229166 0 0 0 5.2980427,7.7848386 Z M 8.6373489,7.5580907 a 0.14948958,0.14948958 0 0 1 -0.025929,0.055562 0.18626666,0.18626666 0 0 1 -0.011642,-0.00661 c -0.038629,-0.023813 -0.04154,-0.046302 -0.040217,-0.059002 a 0.06244167,0.06244167 0 0 1 0.030956,-0.045773 c 0.012965,-0.00714 0.021167,-0.00556 0.029898,0.00317 a 0.05344583,0.05344583 0 0 1 0.016933,0.052652 z"
       id="path4"
       style="stroke-width:0.264583;fill:#ffffff" />
    <g
       id="g1133"
       style="fill:#ffffff"
       transform="matrix(0.88023339,0,0,0.88023339,-6.6987088,-1.9822037)">
      <path
         d="m 9.2084894,4.2525535 a 0.1984375,0.1984375 0 1 1 -0.396875,0 0.1984375,0.1984375 0 0 1 0.396875,0 z M 9.5095852,3.8567369 a 1.7496896,1.7496896 0 0 1 0.4831291,-0.067204 c 0.1762127,0 0.3447517,0.025665 0.5008567,0.072231 a 0.13229166,0.13229166 0 0 0 0.07567,-0.2534708 2.0113625,2.0113625 0 0 0 -0.5765267,-0.083344 c -0.1942041,0 -0.3812645,0.027252 -0.5561541,0.077258 a 0.13239908,0.13239908 0 1 0 0.073025,0.2545298 z"
         id="path2-0"
         style="fill:#ffffff;stroke-width:0.264583" />
      <path
         fill-rule="evenodd"
         d="m 9.9927143,3.0029264 c -0.7876645,0 -1.4739937,0.45085 -1.6721666,1.0914063 H 8.1750269 a 0.26458333,0.26458333 0 0 0 -0.26035,0.3100916 L 7.981881,4.790716 a 0.396875,0.396875 0 0 0 0.3910542,0.3288771 h 0.069585 c 0.079375,0.1357312 0.1820333,0.2587625 0.3029479,0.3656541 l -0.1928812,0.655373 a 0.13229166,0.13229166 0 0 0 0.127,0.1695979 h 0.529167 A 0.13229166,0.13229166 0 0 0 9.3333727,6.2223764 L 9.4609018,5.8649243 c 0.1680105,0.045773 0.3466042,0.070644 0.5320771,0.070644 0.1870601,0 0.3672421,-0.025135 0.5365751,-0.071967 l 0.143669,0.3630083 a 0.13229166,0.13229166 0 0 0 0.123031,0.083608 h 0.529167 a 0.13229166,0.13229166 0 0 0 0.12647,-0.1706563 L 11.250543,5.476516 c 0.288925,-0.2595562 0.471488,-0.6130396 0.471488,-1.0072687 0,-0.038365 -0.0019,-0.076729 -0.0053,-0.1140355 0.06906,-0.029104 0.134409,-0.070379 0.186532,-0.117475 0.08334,0.080962 0.215635,0.080962 0.215635,-0.1103312 0,0.059002 -0.132292,0.059002 -0.121973,-0.00688 a 0.25135416,0.25135416 0 0 0 0.02381,-0.067469 0.18520833,0.18520833 0 0 0 -0.05345,-0.1706563 0.15345833,0.15345833 0 0 0 -0.187061,-0.025929 0.19446875,0.19446875 0 0 0 -0.09922,0.1486958 c -0.0063,0.064294 0.0217,0.127 0.08467,0.1730375 a 0.55879999,0.55879999 0 0 1 -0.06853,0.040481 C 11.555873,3.5138369 10.828268,3.0029264 9.9927143,3.0029264 Z M 8.5512644,4.2551993 C 8.6716498,3.7085702 9.2569081,3.2675098 9.9927143,3.2675098 c 0.8323787,0 1.4647337,0.5593291 1.4647337,1.2017375 0,0.3317875 -0.1651,0.6376458 -0.441855,0.8593666 a 0.13229166,0.13229166 0 0 0 -0.04366,0.1415521 l 0.174625,0.5754687 h -0.26061 L 10.729843,5.6521993 a 0.13229166,0.13229166 0 0 0 -0.166422,-0.0762 c -0.17489,0.060854 -0.367771,0.094985 -0.5707067,0.094985 A 1.7351375,1.7351375 0 0 1 9.4220081,5.5759993 0.13229166,0.13229166 0 0 0 9.2539977,5.6564327 L 9.1150914,6.0456347 H 8.8560644 L 9.0235456,5.4767806 A 0.13229166,0.13229166 0 0 0 8.9785664,5.3354931 1.2300479,1.2300479 0 0 1 8.6388414,4.9277702 0.13229166,0.13229166 0 0 0 8.5208373,4.8550098 H 8.3726706 A 0.13229166,0.13229166 0 0 1 8.2424956,4.7454723 L 8.1752914,4.3591806 H 8.4221477 A 0.13229166,0.13229166 0 0 0 8.5512644,4.2551993 Z M 11.890571,4.0284514 a 0.14948958,0.14948958 0 0 1 -0.02593,0.055563 0.18626666,0.18626666 0 0 1 -0.01164,-0.00661 c -0.03863,-0.023813 -0.04154,-0.046302 -0.04022,-0.059002 a 0.06244167,0.06244167 0 0 1 0.03096,-0.045773 c 0.01297,-0.00714 0.02117,-0.00556 0.0299,0.00317 a 0.05344583,0.05344583 0 0 1 0.01693,0.052652 z"
         id="path4-0"
         style="fill:#ffffff;stroke-width:0.264583" />
    </g>
  </g>
</svg>
